# xmcd CD database file
#
# Track frame offsets:
#	150
#	14120
#	25405
#	36335
#	50220
#	63775
#	75755
#	87732
#	102737
#	116137
#	130770
#	143362
#	153907
#	166085
#	178625
#	190157
#	204345
#	215485
#	230827
#
# Disc length: 3229 seconds
#
# Revision: 0
# Processed by: cddbd v1.5.2PL0 Copyright (c) Steve Scherf et al.
# Submitted via: CDex 1.51
#
DISCID=0a0c9b13
DTITLE=Tiny Grimes - The Complete 1944-1950 Vol 4 1950
DYEAR=1900
DGENRE=Blues
TTITLE0=Riverside Jump
TTITLE1=Things Ain't What They Used To Be
TTITLE2=Flying Saucer Boogie
TTITLE3=Loch Lomond
TTITLE4=Sanctifying the Blues
TTITLE5=Marie (Lovely Girl)
TTITLE6=Battle of the Mass
TTITLE7=St Louis Blues
TTITLE8=St Louis Blues
TTITLE9=St Louis Blues
TTITLE10=1626 Blues
TTITLE11=Hawaiian Boogie
TTITLE12=Hawaiian Boogie
TTITLE13=My Baby's Cool
TTITLE14=Rockin' and Sockin'
TTITLE15=Am I Blue
TTITLE16=Howling Blues
TTITLE17=Howling Blues
TTITLE18=Bananas
EXTD=
EXTT0=
EXTT1=
EXTT2=
EXTT3=
EXTT4=
EXTT5=
EXTT6=
EXTT7=
EXTT8=
EXTT9=
EXTT10=
EXTT11=
EXTT12=
EXTT13=
EXTT14=
EXTT15=
EXTT16=
EXTT17=
EXTT18=
PLAYORDER=
